#!OML:ASF X:\für Bonn\!DataBase\2005_08_10_Bjorn_Final\c3d\bjorn.ASF
:FULLY-SPECIFIED
:DEGREES
260
root -6.12127 17.9682 10.0605 172.201 49.9531 -543.464
lowerback 8.8147 -4.98242 7.68998
upperback 18.2413 -4.30188 0.706074
thorax 14.8298 -0.0898123 -3.29619
lowerneck 7.0748 5.80135 2.26941
upperneck -10.676 6.94706 -13.0462
head -3.77902 4.19516 -4.7295
rclavicle -1.03368e-014 -2.38542e-015
rhumerus -16.2177 -17.7076 -85.3217
rradius 68.8195
rwrist 2.21764
rhand -27.5724 20.7888
rfingers 7.12502
rthumb -0.972933 -9.18872
lclavicle -1.03368e-014 -2.38542e-015
lhumerus -15.2275 -2.09507 83.6445
lradius 58.5993
lwrist -19.916
lhand -48.96 -19.1843
lfingers 7.12502
lthumb -21.5906 9.63215
rfemur -23.7815 -5.6434 12.4681
rtibia 53.4624
rfoot -20.7265 13.6599
rtoes -13.8695
lfemur -10.3107 6.7945 -6.85583
ltibia 80.01
lfoot 1.88413 5.96248
ltoes -20.7108
261
root -6.05555 17.9844 10.0535 172.15 49.8074 -543.389
lowerback 8.97016 -4.92431 7.71766
upperback 18.2352 -4.19358 0.695531
thorax 14.7372 -0.0319792 -3.31271
lowerneck 7.04198 5.79467 2.30676
upperneck -10.699 6.94323 -13.0337
head -3.77955 4.19141 -4.73097
rclavicle 4.77083e-014 2.14687e-014
rhumerus -16.2628 -17.7157 -85.2126
rradius 68.7777
rwrist 2.26919
rhand -27.4338 20.8419
rfingers 7.12502
rthumb -0.839041 -9.13617
lclavicle 4.77083e-014 2.14687e-014
lhumerus -15.4202 -1.83972 83.6231
lradius 58.4507
lwrist -19.9351
lhand -48.9263 -19.0378
lfingers 7.12502
lthumb -21.5583 9.78231
rfemur -23.3008 -5.69685 12.6129
rtibia 53.2526
rfoot -20.9424 13.4905
rtoes -14.0342
lfemur -11.5273 7.33089 -6.73448
ltibia 81.6003
lfoot 1.65775 5.24912
ltoes -20.9006
262
root -5.98994 18.0009 10.046 172.077 49.6773 -543.354
lowerback 9.08983 -4.85095 7.69494
upperback 18.2474 -4.06803 0.696744
thorax 14.6964 0.0300431 -3.2901
lowerneck 6.91928 5.77812 2.3058
upperneck -10.6856 6.92843 -13.0107
head -3.75679 4.1801 -4.71768
rclavicle -5.00937e-014 4.13472e-014
rhumerus -16.2358 -17.7109 -85.1012
rradius 68.7426
rwrist 2.29137
rhand -27.3295 20.7988
rfingers 7.12502
rthumb -0.738319 -9.17963
lclavicle -5.00937e-014 4.13472e-014
lhumerus -15.5605 -1.54887 83.6394
lradius 58.2793
lwrist -20.0166
lhand -48.9313 -18.8801
lfingers 7.12502
lthumb -21.563 9.9395
rfemur -22.8244 -5.72117 12.7313
rtibia 53.0251
rfoot -21.1522 13.3301
rtoes -14.1072
lfemur -12.7383 7.89833 -6.63977
ltibia 83.1376
lfoot 1.43615 4.54333
ltoes -20.8034
263
root -5.92499 18.0185 10.0376 172.018 49.529 -543.312
lowerback 9.1919 -4.78212 7.67684
upperback 18.2463 -3.95345 0.691146
thorax 14.6467 0.0858356 -3.27934
lowerneck 6.77406 5.77626 2.29131
upperneck -10.6352 6.93771 -12.9469
head -3.71923 4.17624 -4.68818
rclavicle -5.40694e-014 -2.70347e-014
rhumerus -16.2386 -17.6699 -84.9854
rradius 68.7374
rwrist 2.30177
rhand -27.1907 20.7052
rfingers 7.12502
rthumb -0.60425 -9.27367
lclavicle -5.40694e-014 -2.70347e-014
lhumerus -15.713 -1.2666 83.6288
lradius 58.1194
lwrist -20.0119
lhand -48.8905 -18.7418
lfingers 7.12502
lthumb -21.5239 10.0822
rfemur -22.3373 -5.73898 12.8488
rtibia 52.7719
rfoot -21.3177 13.1671
rtoes -13.9017
lfemur -13.941 8.43516 -6.56608
ltibia 84.6108
lfoot 1.26105 3.84861
ltoes -20.5281
264
root -5.86023 18.0376 10.0285 171.985 49.3818 -543.238
lowerback 9.27909 -4.71204 7.68573
upperback 18.2414 -3.83963 0.681297
thorax 14.5997 0.144938 -3.28912
lowerneck 6.63216 5.7612 2.29416
upperneck -10.5989 6.92957 -12.8862
head -3.6871 4.16398 -4.66252
rclavicle -6.91771e-014 -4.13472e-014
rhumerus -16.2493 -17.6785 -84.9047
rradius 68.7396
rwrist 2.36216
rhand -27.0714 20.6417
rfingers 7.12502
rthumb -0.489082 -9.33749
lclavicle -6.91771e-014 -4.13472e-014
lhumerus -15.8907 -0.966137 83.5934
lradius 57.9654
lwrist -20.0626
lhand -48.8236 -18.6908
lfingers 7.12502
lthumb -21.4596 10.1406
rfemur -21.8391 -5.75543 12.9941
rtibia 52.4898
rfoot -21.5018 12.9534
rtoes -14.0042
lfemur -15.1359 8.95745 -6.49609
ltibia 86.0262
lfoot 1.10649 3.19548
ltoes -20.4123
265
root -5.79485 18.0588 10.0192 171.908 49.2319 -543.196
lowerback 9.37357 -4.63717 7.62516
upperback 18.2348 -3.72156 0.699812
thorax 14.5512 0.19372 -3.22911
lowerneck 6.46784 5.75467 2.23376
upperneck -10.5179 6.93115 -12.822
head -3.63973 4.15691 -4.62358
rclavicle 2.46493e-014 -5.1684e-014
rhumerus -16.2758 -17.6151 -84.7503
rradius 68.7356
rwrist 2.42832
rhand -26.9596 20.5053
rfingers 7.12502
rthumb -0.381092 -9.47409
lclavicle 2.46493e-014 -5.1684e-014
lhumerus -16.0928 -0.597358 83.6298
lradius 57.8195
lwrist -20.1265
lhand -48.7838 -18.7098
lfingers 7.12502
lthumb -21.4213 10.1259
rfemur -21.2948 -5.75623 13.1195
rtibia 52.1769
rfoot -21.7065 12.7083
rtoes -14.2047
lfemur -16.2942 9.47326 -6.47546
ltibia 87.3706
lfoot 0.978061 2.56249
ltoes -20.368
266
root -5.73083 18.0801 10.0083 171.844 49.1109 -543.16
lowerback 9.43263 -4.54113 7.60856
upperback 18.2299 -3.57727 0.680425
thorax 14.5258 0.265424 -3.23705
lowerneck 6.26666 5.72726 2.26421
upperneck -10.4123 6.91379 -12.7793
head -3.57571 4.13599 -4.6029
rclavicle 8.0309e-014 -5.08889e-014
rhumerus -16.2643 -17.6242 -84.6805
rradius 68.7318
rwrist 2.5118
rhand -26.8914 20.317
rfingers 7.12502
rthumb -0.315198 -9.66252
lclavicle 8.0309e-014 -5.08889e-014
lhumerus -16.28 -0.287327 83.5932
lradius 57.6814
lwrist -20.2388
lhand -48.7838 -18.7087
lfingers 7.12502
lthumb -21.4214 10.1271
rfemur -20.7625 -5.71176 13.2364
rtibia 51.837
rfoot -21.8537 12.5243
rtoes -14.0899
lfemur -17.4562 10.0385 -6.46625
ltibia 88.6589
lfoot 0.862175 1.93228
ltoes -20.026
267
root -5.668 18.1023 9.9968 171.798 48.965 -543.09
lowerback 9.49145 -4.45462 7.57869
upperback 18.2181 -3.44944 0.697782
thorax 14.4922 0.323011 -3.19695
lowerneck 6.06885 5.6926 2.24865
upperneck -10.2981 6.88252 -12.7493
head -3.51225 4.11101 -4.57835
rclavicle -8.98507e-014 1.82882e-014
rhumerus -16.2432 -17.6095 -84.5555
rradius 68.6861
rwrist 2.60637
rhand -26.8206 20.1292
rfingers 7.12502
rthumb -0.246812 -9.85041
lclavicle -8.98507e-014 1.82882e-014
lhumerus -16.491 0.0303404 83.5976
lradius 57.5693
lwrist -20.3322
lhand -48.8241 -18.683
lfingers 7.12502
lthumb -21.4601 10.1484
rfemur -20.2124 -5.68467 13.3777
rtibia 51.4793
rfoot -22.0217 12.2454
rtoes -14.2794
lfemur -18.6096 10.5716 -6.46018
ltibia 89.8876
lfoot 0.699457 1.28558
ltoes -19.3412
